<svg version="1" xmlns="http://www.w3.org/2000/svg" width="933.333" height="933.333" viewBox="0 0 700.000000 700.000000"><path d="M39.5 4.7C25 13.1 16.7 20.4 9.5 31.3c-1.9 2.9-4.2 6.2-5.1 7.4-.9 1.3-1.7 5-2 9.5C1.1 70.2.5 162.7.5 350c0 196.1.7 291 2.1 304 .5 4.5 1.7 7.1 6.3 13.9 7.3 10.9 14.9 18.2 26.8 25.8l9.8 6.2 295.5-.4c162.5-.2 299.8-.5 305.2-.8 8.3-.4 10.1-.8 13-3 1.8-1.4 5.1-3.5 7.3-4.7 10.7-5.9 18.1-13.5 27.5-28.5l4.4-7 .2-48c.1-26.4.4-163.7.6-305l.3-257-5.9-9.3c-7.7-12.2-15.1-19.6-27.7-27.8l-10.4-6.8-77-.2c-42.3-.2-179.2-.5-304-.8L47.5.1l-8 4.6zm234 114.5l.1 36.8-40.1.1c-54 .1-62.7.5-74.2 3.5-9.2 2.4-14.8 8.2-15.9 16.3-.1 1.4-.6 5.1-.9 8.1-.4 3-.8 24.1-1.1 46.8-.2 22.8-.6 41.7-.8 42.1-.3.4-13.4.7-29.3.6H82.5l-.1-95c0-52.3.1-95.2.2-95.5.1-.3 43.1-.5 95.6-.5h95.3v36.7zm125.9-36.1c.4.3.6 15.2.6 33v32.4l-44.1 44c-53.2 53.1-61 60-65.9 59-.8-.2-4.3-1-7.8-1.8-6.2-1.5-23.3-1.7-29.5-.3-14.4 3.3-28.3 13.9-34.7 26.6-5.5 11-7.2 27.1-4 39.1 4.5 17.1 21.9 33.7 39.7 37.9 27.8 6.4 56.7-10.4 63.6-37.2 2-7.8 1.5-22.1-1.3-32.3-1.1-4.4-2.3-9-2.6-10.2-.4-1.9 5.7-8.4 34.8-37.6 68.3-68.3 73.6-74.6 75.2-88 1.4-11.6 1.6-13.6 2-20.2.3-3.9.8-15.3 1.1-25.5.4-10.2.9-18.7 1.2-19 .3-.3 22.6-.5 49.7-.5l49.2-.1-.2 22.1c-.5 51.6-1.5 119.9-1.8 120.2-.3.3-8.6.7-41.6 1.8-41.2 1.4-46.7 2.7-60.5 13.9-15.1 12.5-41 38.5-46.3 46.6-4.3 6.6-7.8 16-8.7 23.4-.3 2.2-.7 5.7-1 7.6-.3 1.9-.7 6.4-.9 10-.3 3.6-.8 10.3-1.1 14.9l-.6 8.4-6.9 7.1c-3.8 3.9-9.5 9.8-12.6 13.1-3.1 3.3-10.2 10.7-15.8 16.5l-10.1 10.5-7 .2c-3.8.1-47.3.4-96.5.7-49.2.4-98.8.7-110.2.8-11.4.1-21.1-.1-21.5-.6-.4-.4-.8-22.8-.8-49.7V301l3.5-.1c1.9 0 5.8-.2 8.5-.4 2.8-.1 12.9-.6 22.5-.9 28.3-1.1 33.8-2.3 40.8-9 5.8-5.5 6.3-7.8 6.8-32.6.6-33.7 1.3-59.2 1.8-62 .2-1.4.7-4.8 1-7.5.4-2.8.8-5.9 1-7 .3-1.9 1.2-2 50.2-2.1 27.4-.1 52-.4 54.5-.7 14-1.7 20.3-5.9 22.8-15.2 2-7.6 2.4-12.9 3.7-46 .4-8.8.8-18.7.9-22 .2-3.3.3-7.6.4-9.5l.1-3.5h48.9c26.9 0 49.2.3 49.5.6zM617.5 350v267.5l-16.5-.1c-27.3-.3-46.1-.8-47-1.4-.4-.3-1.1-11.9-1.5-25.7-.9-37.3-1.9-60.7-2.9-68.5-.3-1.8-.8-5.5-1.1-8.3-.9-6.2-2.7-9.9-9.5-18.9-1.4-1.7-10.6-12-15.3-17.1-4.7-5-10-12.8-12-17.7-1.9-4.8-2.1-7.7-2.4-30.3l-.4-25 9.8-6.2c22.6-14.2 29.8-24.4 30.9-43.7 1.4-23.2-8.7-42.4-27.3-51.5-8.9-4.4-12.2-5.1-24.3-5.6-23.8-.8-44.4 13.2-52.1 35.5-3.2 9.1-3.2 24.9 0 33.5 4.5 12.4 13.3 22.5 28.4 32.5 4.9 3.3 9.4 6.1 9.9 6.2.7.3 1.1 9.8 1.3 25.8.3 30.2 1.2 39 4.2 43.8 1.6 2.5 11.1 15.1 12.3 16.2.3.3 3.9 4.3 8 9s7.7 8.7 8 9c.3.3 2.3 2.5 4.5 5l4.1 4.5-.2 48.5c-.1 26.7-.2 49-.3 49.7-.1.9-50.4 1.1-221.8 1l-221.8-.2.3-19c.2-10.5.5-23.7.7-29.5.2-5.8.4-12.1.4-14l.1-3.5 8.8-.1c13.6-.2 67.9-1.4 86.2-2 26.8-.8 36.6-2.6 43.9-8.1 3.9-2.9 14.8-12.4 22-19l4.6-4.3H330.8l6.1 9.4c15 23.3 27.1 30.4 49.5 29.3 5.6-.2 11-.7 12.1-1 14.5-3.8 25.7-12.6 32.9-25.9 10-18.3 9.2-39.5-2-56.5-13.6-20.5-47.9-29.3-68.4-17.6-10.9 6.3-20.9 17.2-26.5 29l-3.1 6.6-33.5.3c-39.5.3-43.3.6-55.6 4.5-5.4 1.8-17.6 9.6-20.8 13.4-2.4 2.8-12.3 10.4-16 12.3-7.5 3.7-21.3 4.5-80 4.6l-43 .1V427l22-.1c56.3-.2 181.6-1.8 195.5-2.4 21.8-1 26.1-2.2 35.2-9.7 10-8.3 37.5-36 42.7-43.1 9.8-13.4 12.7-23 13.4-45.2.3-10.2.9-14.1 2.4-17.6 4-8.9 24.9-32.2 41.3-46 3.6-3 8-6.7 9.8-8.4 3-2.7 4-2.9 11-3.1 4.2-.1 19.2-.5 33.2-.8 45.7-1.3 46.9-1.5 54.9-9.5 5.8-5.8 5.8-6.6 6.6-62.7.5-37.6.9-54.1 1.8-84.1.2-5.1.6-9.5 1-9.9.3-.4 10.9-.9 23.4-1.1 12.5-.3 22.9-.5 23-.6.1-.1 4.1-.2 9-.2h8.8V350zm-341.9-76c5.8 1.6 12.8 8 15.9 14.5 6.8 14.6.7 30.8-14.8 38.6-15.9 8.2-38.4-6.2-39.3-25.1-.3-8.6 1.9-14.5 8-20.6 8.2-8.2 18.3-10.6 30.2-7.4zm233.9 50.1c9.2 4.6 16.7 16.3 16.7 26-.1 6.8-3 12.4-10.4 19.7-6.9 7-13.7 10.2-20.1 9.6-8.4-.9-21.3-10.8-25.6-19.8-6.9-14 3.6-33.4 20.4-37.7 5.2-1.3 13.9-.3 19 2.2zm-112 154.3c9.4 4.3 15.4 12.8 16 22.7.3 5.3-1.7 14.2-3.8 16.5-.7.7-2.5 3.1-4.2 5.4-1.9 2.6-5 5.1-8.8 7-4.9 2.4-6.8 2.8-12 2.6-7.9-.4-14.6-3.4-20.3-9.2-8.9-8.9-10.8-19.4-5.4-30.1 2.8-5.7 9.5-13.3 13.7-15.6 5.4-3.1 17.4-2.7 24.8.7z"/></svg>