<?xml version="1.0" encoding="UTF-8" standalone="no"?>
<!-- Created with Inkscape (http://www.inkscape.org/) -->

<svg
   xmlns:dc="http://purl.org/dc/elements/1.1/"
   xmlns:cc="http://creativecommons.org/ns#"
   xmlns:rdf="http://www.w3.org/1999/02/22-rdf-syntax-ns#"
   xmlns:svg="http://www.w3.org/2000/svg"
   xmlns="http://www.w3.org/2000/svg"
   xmlns:sodipodi="http://sodipodi.sourceforge.net/DTD/sodipodi-0.dtd"
   xmlns:inkscape="http://www.inkscape.org/namespaces/inkscape"
   width="16.635849mm"
   height="16.630524mm"
   viewBox="0 0 16.635849 16.630524"
   version="1.1"
   id="svg1471"
   inkscape:version="0.92.4 (5da689c313, 2019-01-14)"
   sodipodi:docname="icon.svg">
  <defs
     id="defs1465" />
  <sodipodi:namedview
     id="base"
     pagecolor="#ffffff"
     bordercolor="#666666"
     borderopacity="1.0"
     inkscape:pageopacity="0.0"
     inkscape:pageshadow="2"
     inkscape:zoom="2.8"
     inkscape:cx="96.036219"
     inkscape:cy="18.292824"
     inkscape:document-units="mm"
     inkscape:current-layer="layer1"
     showgrid="false"
     fit-margin-top="0"
     fit-margin-left="0"
     fit-margin-right="0"
     fit-margin-bottom="0"
     inkscape:window-width="1920"
     inkscape:window-height="1137"
     inkscape:window-x="-8"
     inkscape:window-y="-8"
     inkscape:window-maximized="1" />
  <metadata
     id="metadata1468">
    <rdf:RDF>
      <cc:Work
         rdf:about="">
        <dc:format>image/svg+xml</dc:format>
        <dc:type
           rdf:resource="http://purl.org/dc/dcmitype/StillImage" />
        <dc:title></dc:title>
      </cc:Work>
    </rdf:RDF>
  </metadata>
  <g
     inkscape:label="Layer 1"
     inkscape:groupmode="layer"
     id="layer1"
     transform="translate(-6.1436392,-53.583547)">
    <path
       style="fill:#ffffff;stroke-width:0.06988949"
       d="m 6.9152692,70.017007 c -0.17297,-0.10509 -0.38471,-0.29923 -0.47054,-0.43131 -0.0858,-0.13209 -0.18804,-0.27813 -0.22714,-0.32456 -0.0986,-0.11695 -0.0986,-14.60063 0,-14.71765 0.0391,-0.0464 0.14132,-0.19238 0.22714,-0.32435 0.0858,-0.13197 0.30773,-0.32897 0.49313,-0.43776 l 0.33708,-0.19783 7.2164798,0.0185 7.21649,0.0185 0.33907,0.20968 c 0.21601,0.13357 0.41046,0.3312 0.53579,0.54452 l 0.19672,0.33485 -0.0171,7.218711 -0.0171,7.218689 -0.20967,0.33517 c -0.12765,0.20398 -0.3191,0.39333 -0.48923,0.48374 -0.15374,0.0817 -0.29002,0.17216 -0.30285,0.20098 -0.013,0.0288 -3.28364,0.0499 -7.26851,0.0469 l -7.2452198,-0.005 z m 11.7414398,-2.93582 v -1.18108 l -0.42323,-0.46701 c -0.23278,-0.25686 -0.45293,-0.54514 -0.48923,-0.6406 -0.0364,-0.0954 -0.066,-0.48481 -0.066,-0.86518 v -0.691609 l -0.34363,-0.22496 c -0.42545,-0.27853 -0.66202,-0.674751 -0.66087,-1.10691 0.003,-0.72141 0.54628,-1.259531 1.27413,-1.259531 0.75209,0 1.26794,0.518591 1.26794,1.274661 0,0.47129 -0.17933,0.768189 -0.64424,1.066629 l -0.32662,0.209681 -0.004,0.630919 c -0.004,0.70059 0.0203,0.76074 0.52664,1.29104 0.16516,0.17297 0.33739,0.40884 0.38274,0.52417 0.0468,0.11904 0.0949,0.72289 0.11148,1.39778 l 0.0289,1.18813 0.76618,0.0198 0.76619,0.0198 v -6.36452 -6.36451 l -0.771871,0.0198 -0.771849,0.0198 -0.0233,0.62901 c -0.013,0.34596 -0.0271,1.1573 -0.032,1.80299 -0.008,1.161111 -0.0104,1.175791 -0.18531,1.337811 -0.16573,0.15359 -0.2411,0.16539 -1.2074,0.18896 l -1.03062,0.025 -0.37444,0.31441 c -0.20593,0.17293 -0.51176,0.4824 -0.679619,0.68773 -0.28018,0.34275 -0.30523,0.40574 -0.30558,0.76879 -5.3e-4,0.68451 -0.10078,0.89703 -0.72385,1.53676 -0.31278,0.32115 -0.663061,0.63605 -0.77838,0.69976 -0.18336,0.101309 -0.56266,0.118779 -3.022721,0.138849 l -2.8130595,0.0231 v 1.1826 1.18258 h 1.3233499 c 0.7614296,0 1.4069006,-0.0314 1.5200996,-0.074 0.108221,-0.0407 0.306831,-0.18071 0.44136,-0.31108 0.400631,-0.38822 0.64567,-0.45354 1.70157,-0.45354 h 0.937281 l 0.0831,-0.200492 c 0.105219,-0.25416 0.468999,-0.60738 0.724709,-0.70378 0.46261,-0.17442 1.07201,-0.022 1.42353,0.35583 0.367101,0.39465 0.4103,1.0487 0.10144,1.53572 -0.24354,0.38403 -0.60808,0.5766 -1.09556,0.57871 -0.455179,0.003 -0.77428,-0.18226 -1.0455,-0.60365 l -0.20967,-0.32575 -0.96254,-0.004 -0.96254,-0.004 -0.29547,0.26406 c -0.55654,0.4974 -0.42882,0.46679 -2.1056596,0.50473 l -1.5445,0.0349 -0.0198,0.78626 -0.0198,0.78627 h 5.2789296 5.27895 v -1.18108 z m -2.94425,-0.99222 c 0.49846,-0.46439 0.25003,-1.18934 -0.41355,-1.20673 -0.24357,-0.007 -0.32208,0.0287 -0.49276,0.21963 -0.27776,0.31087 -0.2773,0.65076 0.001,0.92931 0.25633,0.25633 0.66398,0.28237 0.90504,0.0578 z m -1.46417,-3.59598 0.54172,-0.562519 0.048,-0.62423 c 0.0568,-0.74007 0.15767,-0.918671 0.91471,-1.62091 0.75559,-0.70089 0.69845,-0.67872 1.85215,-0.71837 l 1.01692,-0.0349 0.0188,-1.69481 0.0186,-1.69482 h -1.17977 -1.17977 l -0.0342,0.83121 c -0.0282,0.68455 -0.0601,0.87263 -0.181,1.06582 -0.0807,0.12908 -0.67769,0.763699 -1.32662,1.410379 l -1.17989,1.17579 0.0906,0.3491 c 0.21868,0.84308 -0.26136,1.542111 -1.11654,1.62585 -0.64636,0.0634 -1.282,-0.45389 -1.35513,-1.102579 -0.11409,-1.0125 0.77476,-1.661151 1.83378,-1.33816 0.11226,0.0343 0.38369,-0.202771 1.38033,-1.20555 l 1.24054,-1.24817 v -0.78185 -0.781841 h -1.17776 -1.17774 l -0.0394,0.9944 c -0.0545,1.375841 0.0312,1.311941 -1.75795,1.311941 h -1.34945 l -0.0445,0.324259 c -0.0244,0.17834 -0.0445,0.73896 -0.0445,1.24582 0,0.893881 -0.005,0.92653 -0.1756099,1.08655 -0.1585198,0.14893 -0.2536899,0.167961 -0.9784498,0.19571 l -0.8028501,0.0308 v 1.181619 1.181621 l 2.8015898,-0.0198 2.8016,-0.0198 z m 4.1708,-0.12934 c 0.26808,-0.268099 0.30323,-0.50336 0.12125,-0.811459 -0.36457,-0.617191 -1.2814,-0.339121 -1.2814,0.388639 0,0.27168 0.41141,0.660441 0.69889,0.660441 0.16117,0 0.29005,-0.0664 0.46128,-0.237621 z m -5.48794,-1.154789 c 0.53422,-0.53424 -0.0383,-1.38603 -0.73574,-1.094631 -0.47278,0.19754 -0.5598,0.79239 -0.16454,1.124951 0.29232,0.24598 0.63553,0.23442 0.90028,-0.0304 z m -3.4299698,-2.2373 c 0,-0.612521 0.0301,-1.192851 0.0669,-1.2896 0.1294701,-0.34037 0.36529,-0.392301 1.7817198,-0.392301 h 1.29642 v -0.87362 -0.87362 h -2.27141 -2.2714098 v 2.27141 2.271411 h 0.6989001 0.69889 z"
       id="path1400"
       inkscape:connector-curvature="0"
       sodipodi:nodetypes="ccscccccccccccccccccccccscccsscccccccccccccccccccccccccccsccsccccccccccccccccccccccccccccsccccccccsccccccccccccsccsccccccccsssssccsccscscccccccccs"
       inkscape:export-xdpi="96"
       inkscape:export-ydpi="96" />
  </g>
</svg>
