<?xml version="1.0" encoding="UTF-8" standalone="no"?>
<svg
   xmlns:dc="http://purl.org/dc/elements/1.1/"
   xmlns:cc="http://creativecommons.org/ns#"
   xmlns:rdf="http://www.w3.org/1999/02/22-rdf-syntax-ns#"
   xmlns:svg="http://www.w3.org/2000/svg"
   xmlns="http://www.w3.org/2000/svg"
   id="svg1471"
   version="1.1"
   viewBox="0 0 82.962723 16.630524"
   height="16.630524mm"
   width="82.962723mm">
  <defs
     id="defs1465" />
  <metadata
     id="metadata1468">
    <rdf:RDF>
      <cc:Work
         rdf:about="">
        <dc:format>image/svg+xml</dc:format>
        <dc:type
           rdf:resource="http://purl.org/dc/dcmitype/StillImage" />
        <dc:title></dc:title>
      </cc:Work>
    </rdf:RDF>
  </metadata>
  <g
     transform="translate(-6.1436392,-53.583547)"
     id="layer1">
    <path
       id="path1400"
       d="m 6.9152692,70.017007 c -0.17297,-0.10509 -0.38471,-0.29923 -0.47054,-0.43131 -0.0858,-0.13209 -0.18804,-0.27813 -0.22714,-0.32456 -0.0986,-0.11695 -0.0986,-14.60063 0,-14.71765 0.0391,-0.0464 0.14132,-0.19238 0.22714,-0.32435 0.0858,-0.13197 0.30773,-0.32897 0.49313,-0.43776 l 0.33708,-0.19783 7.2164798,0.0185 7.21649,0.0185 0.33907,0.20968 c 0.21601,0.13357 0.41046,0.3312 0.53579,0.54452 l 0.19672,0.33485 -0.0171,7.218711 -0.0171,7.218689 -0.20967,0.33517 c -0.12765,0.20398 -0.3191,0.39333 -0.48923,0.48374 -0.15374,0.0817 -0.29002,0.17216 -0.30285,0.20098 -0.013,0.0288 -3.28364,0.0499 -7.26851,0.0469 l -7.2452198,-0.005 z m 11.7414398,-2.93582 v -1.18108 l -0.42323,-0.46701 c -0.23278,-0.25686 -0.45293,-0.54514 -0.48923,-0.6406 -0.0364,-0.0954 -0.066,-0.48481 -0.066,-0.86518 v -0.691609 l -0.34363,-0.22496 c -0.42545,-0.27853 -0.66202,-0.674751 -0.66087,-1.10691 0.003,-0.72141 0.54628,-1.259531 1.27413,-1.259531 0.75209,0 1.26794,0.518591 1.26794,1.274661 0,0.47129 -0.17933,0.768189 -0.64424,1.066629 l -0.32662,0.209681 -0.004,0.630919 c -0.004,0.70059 0.0203,0.76074 0.52664,1.29104 0.16516,0.17297 0.33739,0.40884 0.38274,0.52417 0.0468,0.11904 0.0949,0.72289 0.11148,1.39778 l 0.0289,1.18813 0.76618,0.0198 0.76619,0.0198 v -6.36452 -6.36451 l -0.771871,0.0198 -0.771849,0.0198 -0.0233,0.62901 c -0.013,0.34596 -0.0271,1.1573 -0.032,1.80299 -0.008,1.161111 -0.0104,1.175791 -0.18531,1.337811 -0.16573,0.15359 -0.2411,0.16539 -1.2074,0.18896 l -1.03062,0.025 -0.37444,0.31441 c -0.20593,0.17293 -0.51176,0.4824 -0.679619,0.68773 -0.28018,0.34275 -0.30523,0.40574 -0.30558,0.76879 -5.3e-4,0.68451 -0.10078,0.89703 -0.72385,1.53676 -0.31278,0.32115 -0.663061,0.63605 -0.77838,0.69976 -0.18336,0.101309 -0.56266,0.118779 -3.022721,0.138849 l -2.8130595,0.0231 v 1.1826 1.18258 h 1.3233499 c 0.7614296,0 1.4069006,-0.0314 1.5200996,-0.074 0.108221,-0.0407 0.306831,-0.18071 0.44136,-0.31108 0.400631,-0.38822 0.64567,-0.45354 1.70157,-0.45354 h 0.937281 l 0.0831,-0.200492 c 0.105219,-0.25416 0.468999,-0.60738 0.724709,-0.70378 0.46261,-0.17442 1.07201,-0.022 1.42353,0.35583 0.367101,0.39465 0.4103,1.0487 0.10144,1.53572 -0.24354,0.38403 -0.60808,0.5766 -1.09556,0.57871 -0.455179,0.003 -0.77428,-0.18226 -1.0455,-0.60365 l -0.20967,-0.32575 -0.96254,-0.004 -0.96254,-0.004 -0.29547,0.26406 c -0.55654,0.4974 -0.42882,0.46679 -2.1056596,0.50473 l -1.5445,0.0349 -0.0198,0.78626 -0.0198,0.78627 h 5.2789296 5.27895 v -1.18108 z m -2.94425,-0.99222 c 0.49846,-0.46439 0.25003,-1.18934 -0.41355,-1.20673 -0.24357,-0.007 -0.32208,0.0287 -0.49276,0.21963 -0.27776,0.31087 -0.2773,0.65076 0.001,0.92931 0.25633,0.25633 0.66398,0.28237 0.90504,0.0578 z m -1.46417,-3.59598 0.54172,-0.562519 0.048,-0.62423 c 0.0568,-0.74007 0.15767,-0.918671 0.91471,-1.62091 0.75559,-0.70089 0.69845,-0.67872 1.85215,-0.71837 l 1.01692,-0.0349 0.0188,-1.69481 0.0186,-1.69482 h -1.17977 -1.17977 l -0.0342,0.83121 c -0.0282,0.68455 -0.0601,0.87263 -0.181,1.06582 -0.0807,0.12908 -0.67769,0.763699 -1.32662,1.410379 l -1.17989,1.17579 0.0906,0.3491 c 0.21868,0.84308 -0.26136,1.542111 -1.11654,1.62585 -0.64636,0.0634 -1.282,-0.45389 -1.35513,-1.102579 -0.11409,-1.0125 0.77476,-1.661151 1.83378,-1.33816 0.11226,0.0343 0.38369,-0.202771 1.38033,-1.20555 l 1.24054,-1.24817 v -0.78185 -0.781841 h -1.17776 -1.17774 l -0.0394,0.9944 c -0.0545,1.375841 0.0312,1.311941 -1.75795,1.311941 h -1.34945 l -0.0445,0.324259 c -0.0244,0.17834 -0.0445,0.73896 -0.0445,1.24582 0,0.893881 -0.005,0.92653 -0.1756099,1.08655 -0.1585198,0.14893 -0.2536899,0.167961 -0.9784498,0.19571 l -0.8028501,0.0308 v 1.181619 1.181621 l 2.8015898,-0.0198 2.8016,-0.0198 z m 4.1708,-0.12934 c 0.26808,-0.268099 0.30323,-0.50336 0.12125,-0.811459 -0.36457,-0.617191 -1.2814,-0.339121 -1.2814,0.388639 0,0.27168 0.41141,0.660441 0.69889,0.660441 0.16117,0 0.29005,-0.0664 0.46128,-0.237621 z m -5.48794,-1.154789 c 0.53422,-0.53424 -0.0383,-1.38603 -0.73574,-1.094631 -0.47278,0.19754 -0.5598,0.79239 -0.16454,1.124951 0.29232,0.24598 0.63553,0.23442 0.90028,-0.0304 z m -3.4299698,-2.2373 c 0,-0.612521 0.0301,-1.192851 0.0669,-1.2896 0.1294701,-0.34037 0.36529,-0.392301 1.7817198,-0.392301 h 1.29642 v -0.87362 -0.87362 h -2.27141 -2.2714098 v 2.27141 2.271411 h 0.6989001 0.69889 z"
       style="fill:#ffffff;stroke-width:0.06988949" />
    <g
       id="text1428"
       style="font-style:normal;font-weight:normal;font-size:10.58333302px;line-height:1.25;font-family:sans-serif;letter-spacing:0px;word-spacing:0px;fill:#ffffff;fill-opacity:1;stroke:none;stroke-width:0.26458332"
       aria-label="BeyondRISC">
      <path
         id="path2026"
         style="font-style:normal;font-variant:normal;font-weight:normal;font-stretch:normal;font-family:'Public Sans';-inkscape-font-specification:'Public Sans';fill:#ffffff;stroke-width:0.26458332"
         d="m 29.353194,65.713341 h 2.54 c 1.952625,0 2.942166,-0.672042 2.942166,-2.058459 0,-0.862541 -0.402166,-1.582208 -1.608666,-1.841499 1.04775,-0.370417 1.418166,-0.947209 1.418166,-1.756834 0,-1.291166 -0.973666,-1.994958 -2.831041,-1.994958 h -2.460625 z m 0.978958,-4.28625 v -2.555875 h 1.529292 c 1.084791,0 1.836208,0.418042 1.836208,1.307042 0,0.968375 -0.904875,1.248833 -1.698625,1.248833 z m 0,3.471333 v -2.640541 h 1.666875 c 1.026583,0 1.8415,0.396875 1.8415,1.354666 0,0.873125 -0.682625,1.285875 -1.957917,1.285875 z" />
      <path
         id="path2028"
         style="font-style:normal;font-variant:normal;font-weight:normal;font-stretch:normal;font-family:'Public Sans';-inkscape-font-specification:'Public Sans';fill:#ffffff;stroke-width:0.26458332"
         d="m 37.003125,63.205091 h 3.921125 v -0.359833 c 0,-1.661584 -0.85725,-2.709334 -2.397125,-2.709334 -1.592792,0 -2.513542,1.169459 -2.513542,2.894542 0,1.74625 1.053042,2.788708 2.582333,2.788708 1.063625,0 2.032,-0.555625 2.291292,-1.703917 h -0.92075 c -0.206375,0.624417 -0.687917,0.947209 -1.386417,0.947209 -1.063625,0 -1.576916,-0.820209 -1.576916,-1.857375 z m 0.0053,-0.661458 c -0.0053,-0.814917 0.486834,-1.666875 1.513417,-1.666875 0.989542,0 1.4605,0.724958 1.4605,1.666875 z" />
      <path
         id="path2030"
         style="font-style:normal;font-variant:normal;font-weight:normal;font-stretch:normal;font-family:'Public Sans';-inkscape-font-specification:'Public Sans';fill:#ffffff;stroke-width:0.26458332"
         d="m 42.631639,67.459591 c 0.751416,0 1.328208,-0.291042 1.751541,-1.3335 l 2.307167,-5.884333 H 45.732555 L 44.12918,64.464507 42.515222,60.241758 H 41.52568 l 2.137834,5.339291 -0.1905,0.518583 c -0.111125,0.269875 -0.312209,0.629709 -1.127125,0.597959 l -0.555625,-0.01058 v 0.635 c 0,0 0.195791,0.137584 0.841375,0.137584 z" />
      <path
         id="path2032"
         style="font-style:normal;font-variant:normal;font-weight:normal;font-stretch:normal;font-family:'Public Sans';-inkscape-font-specification:'Public Sans';fill:#ffffff;stroke-width:0.26458332"
         d="m 49.739669,65.819174 c 1.629833,0 2.492375,-1.148292 2.492375,-2.820458 0,-1.8415 -0.98425,-2.862792 -2.492375,-2.862792 -1.61925,0 -2.50825,1.148292 -2.50825,2.862792 0,1.825625 0.989542,2.820458 2.50825,2.820458 z m 0,-0.772583 c -1.090083,0 -1.539875,-0.915459 -1.539875,-2.069042 0,-1.30175 0.550333,-2.074333 1.539875,-2.074333 1.0795,0 1.524,0.904875 1.524,2.074333 0,1.285875 -0.53975,2.069042 -1.524,2.069042 z" />
      <path
         id="path2034"
         style="font-style:normal;font-variant:normal;font-weight:normal;font-stretch:normal;font-family:'Public Sans';-inkscape-font-specification:'Public Sans';fill:#ffffff;stroke-width:0.26458332"
         d="m 53.538591,65.713341 h 0.978958 v -3.656542 c 0,-0.735541 0.672042,-1.084791 1.412875,-1.084791 0.714375,0 1.2065,0.407458 1.2065,1.259416 v 3.481917 h 0.978958 v -3.577167 c 0,-1.375833 -0.878416,-1.973791 -1.915583,-1.973791 -0.873125,0 -1.444625,0.418041 -1.7145,0.873125 v -0.79375 h -0.947208 z" />
      <path
         id="path2036"
         style="font-style:normal;font-variant:normal;font-weight:normal;font-stretch:normal;font-family:'Public Sans';-inkscape-font-specification:'Public Sans';fill:#ffffff;stroke-width:0.26458332"
         d="m 61.651543,65.819174 c 1.285875,0 1.7145,-0.799042 1.852083,-1.227667 l 0.105833,1.121834 h 0.751417 v -7.863417 h -0.989542 v 3.259667 c -0.179916,-0.354542 -0.746125,-0.973667 -1.793875,-0.973667 -1.481666,0 -2.233083,1.116542 -2.233083,2.820459 0,1.873249 0.889,2.862791 2.307167,2.862791 z m 0.174625,-0.751417 c -0.978959,0 -1.502834,-0.788458 -1.502834,-2.158999 0,-1.402292 0.624417,-2.010834 1.524,-2.010834 1.090084,0 1.513417,0.73025 1.524,2.010834 0,1.529291 -0.433916,2.158999 -1.545166,2.158999 z" />
      <path
         id="path2038"
         style="font-style:normal;font-variant:normal;font-weight:normal;font-stretch:normal;font-family:'Public Sans';-inkscape-font-specification:'Public Sans';fill:#ffffff;stroke-width:0.26458332"
         d="m 71.659738,65.713341 -1.502833,-3.471333 c 0.73025,-0.275167 1.481666,-0.846667 1.481666,-2.090209 0,-1.30175 -0.830791,-2.090208 -2.487083,-2.090208 h -2.963333 v 7.65175 h 0.978958 v -3.296708 h 2.058458 l 1.397,3.296708 z m -2.82575,-4.106333 h -1.666875 v -2.746375 h 1.899708 c 0.978959,0 1.571625,0.449791 1.571625,1.349375 0,0.926041 -0.656166,1.397 -1.804458,1.397 z" />
      <path
         id="path2040"
         style="font-style:normal;font-variant:normal;font-weight:normal;font-stretch:normal;font-family:'Public Sans';-inkscape-font-specification:'Public Sans';fill:#ffffff;stroke-width:0.26458332"
         d="m 73.360842,58.061591 v 7.65175 h 0.978959 v -7.65175 z" />
      <path
         id="path2042"
         style="font-style:normal;font-variant:normal;font-weight:normal;font-stretch:normal;font-family:'Public Sans';-inkscape-font-specification:'Public Sans';fill:#ffffff;stroke-width:0.26458332"
         d="m 78.977451,65.819174 c 1.815042,0 2.878667,-0.926042 2.878667,-2.079625 0,-0.830791 -0.322792,-1.8415 -1.846792,-2.174875 l -1.455208,-0.34925 c -1.000125,-0.243416 -1.312333,-0.560916 -1.312333,-1.116541 0,-0.85725 0.841375,-1.30175 1.698625,-1.30175 0.910166,0 1.693333,0.34925 1.793875,1.386416 h 1.010708 c -0.01058,-1.158875 -0.973667,-2.217208 -2.804583,-2.217208 -1.592792,0 -2.735792,0.904875 -2.7305,2.227792 0.01058,1.04775 0.687917,1.672166 1.815041,1.920875 l 1.502834,0.34925 c 0.846666,0.195791 1.328208,0.592666 1.328208,1.285874 0,0.777875 -0.809625,1.254125 -1.883833,1.254125 -0.963084,0 -1.778,-0.455083 -1.963208,-1.322916 h -1.026584 c 0.195792,1.407583 1.550459,2.137833 2.995083,2.137833 z" />
      <path
         id="path2044"
         style="font-style:normal;font-variant:normal;font-weight:normal;font-stretch:normal;font-family:'Public Sans';-inkscape-font-specification:'Public Sans';fill:#ffffff;stroke-width:0.26458332"
         d="m 86.21711,57.955758 c -2.069041,0 -3.254375,1.412875 -3.254375,3.90525 0,2.497666 1.190625,3.958166 3.254375,3.958166 1.830917,0 2.7305,-1.2065 2.88925,-2.513542 h -1.042458 c -0.169333,0.894292 -0.79375,1.661584 -1.87325,1.661584 -1.391708,0 -2.143125,-0.963084 -2.143125,-3.095625 0,-2.116667 0.751417,-3.063875 2.143125,-3.063875 1.0795,0 1.703917,0.714375 1.87325,1.613958 h 1.042458 c -0.137583,-1.338791 -1.275291,-2.465916 -2.88925,-2.465916 z" />
    </g>
  </g>
</svg>
